#!OML:ASF F:\VICON\USERDATA\INSTALL\rory3\rory3.ASF
:FULLY-SPECIFIED
:DEGREES
424
root 1.83469 16.3538 24.2335 -151.412 3.02198 -176.509
lowerback -6.2759 6.06996 1.29476
upperback -8.1013 8.89408 -1.76724
thorax -4.47059 4.71027 -2.34144
lowerneck -21.636 -3.00793 -5.36991
upperneck 30.384 -4.93374 3.71591
head 14.2709 -2.6516 1.40292
rclavicle 2.96189e-014 -1.31198e-014
rhumerus -37.2356 19.5324 -89.9418
rradius 67.6717
rwrist -60.4406
rhand 22.8511 -0.467931
rfingers 7.12502
rthumb 47.1813 -23.0539
lclavicle 2.96189e-014 -1.31198e-014
lhumerus -80.8297 9.65577 60.3443
lradius 70.6381
lwrist 54.4645
lhand 21.9108 17.6014
lfingers 7.12502
lthumb 46.3108 40.5654
rfemur -26.5405 13.7527 26.094
rtibia 46.5621
rfoot -24.0589 -19.1256
rtoes -4.70958
lfemur -77.4911 -6.61151 -15.0124
ltibia 71.6297
lfoot -7.95606 11.9402
ltoes -16.0269
425
root 1.83606 16.4143 24.0639 -152.006 3.94435 -176.755
lowerback -5.89823 6.33394 0.199101
upperback -7.93524 9.21132 -2.08035
thorax -4.60058 4.88869 -2.10257
lowerneck -21.6324 -3.15515 -5.11447
upperneck 30.6017 -5.49552 4.22501
head 14.4104 -2.80502 1.45737
rclavicle -8.95773e-015 7.65321e-015
rhumerus -36.851 19.2219 -89.675
rradius 67.3909
rwrist -60.3651
rhand 26.314 -2.42419
rfingers 7.12502
rthumb 50.3648 -23.4533
lclavicle -8.95773e-015 7.65321e-015
lhumerus -81.4298 10.9728 59.1591
lradius 73.0559
lwrist 57.668
lhand 24.3342 17.3317
lfingers 7.12502
lthumb 48.5492 39.2841
rfemur -26.3178 12.8075 25.5666
rtibia 47.8439
rfoot -20.7977 -17.8709
rtoes -4.21152
lfemur -76.566 -6.35641 -15.1741
ltibia 69.26
lfoot -5.70478 11.5706
ltoes -17.0779
426
root 1.83772 16.4535 23.912 -152.507 4.33843 -176.899
lowerback -5.69802 6.46808 -0.554537
upperback -7.62099 9.33429 -2.2964
thorax -4.45343 4.95374 -1.91569
lowerneck -21.9262 -3.30758 -4.87534
upperneck 30.7783 -5.9978 4.6764
head 14.5959 -2.92661 1.49997
rclavicle -8.13713e-014 5.26779e-015
rhumerus -36.2168 18.6807 -89.0469
rradius 67.214
rwrist -59.9847
rhand 29.657 -4.35306
rfingers 7.12502
rthumb 53.3983 -23.5899
lclavicle -8.13713e-014 5.26779e-015
lhumerus -81.2612 12.7382 58.2038
lradius 74.9929
lwrist 59.9442
lhand 27.5185 16.5841
lfingers 7.12502
lthumb 51.4628 37.0035
rfemur -26.6007 11.3005 25.398
rtibia 49.8845
rfoot -16.9038 -16.7602
rtoes -3.91619
lfemur -75.942 -6.31905 -15.1226
ltibia 67.4254
lfoot -3.43934 10.9635
ltoes -17.1635
427
root 1.84274 16.4577 23.7839 -153.442 4.63517 -176.653
lowerback -4.29576 6.64763 -0.846826
upperback -7.5861 9.49797 -2.47004
thorax -5.21184 5.00726 -2.13117
lowerneck -21.7666 -3.44949 -4.42227
upperneck 30.9281 -6.60839 5.05196
head 14.6683 -3.10175 1.45656
rclavicle -1.76794e-014 -2.18663e-014
rhumerus -36.2189 17.8298 -88.4931
rradius 67.3057
rwrist -59.1394
rhand 32.6581 -5.44396
rfingers 7.12502
rthumb 56.0795 -22.7719
lclavicle -1.76794e-014 -2.18663e-014
lhumerus -80.6872 13.9944 57.8019
lradius 76.9571
lwrist 62.2534
lhand 29.6775 16.4573
lfingers 7.12502
lthumb 53.4168 35.6821
rfemur -26.9885 10.1559 25.8261
rtibia 53.0552
rfoot -13.0764 -16.2293
rtoes -4.28137
lfemur -75.0628 -6.04231 -14.8095
ltibia 66.2664
lfoot -1.42808 10.0497
ltoes -17.7069
428
root 1.81736 16.4557 23.5932 -155.109 4.90268 -176.114
lowerback -3.3141 6.93785 -0.265811
upperback -6.97988 9.74061 -2.55932
thorax -5.00129 5.04063 -2.60062
lowerneck -21.7008 -3.57494 -3.93796
upperneck 30.9628 -7.17919 5.43807
head 14.7078 -3.24722 1.41884
rclavicle 6.61208e-014 -3.35946e-014
rhumerus -36.0487 17.0445 -87.5712
rradius 67.6705
rwrist -57.6688
rhand 35.1121 -5.76483
rfingers 7.12502
rthumb 58.2348 -21.2737
lclavicle 6.61208e-014 -3.35946e-014
lhumerus -79.1998 15.1128 58.3984
lradius 79.2633
lwrist 65.7547
lhand 30.42 17.3025
lfingers 7.12502
lthumb 54.0841 36.0835
rfemur -26.4885 8.57747 26.4793
rtibia 56.9722
rfoot -9.59636 -15.5832
rtoes -5.67443
lfemur -73.0369 -5.89055 -14.6098
ltibia 65.7748
lfoot -0.340009 9.17536
ltoes -18.9422
429
root 1.81677 16.4142 23.4739 -156.003 4.615 -175.967
lowerback -2.44371 6.77375 -0.339508
upperback -6.53647 9.42905 -2.52002
thorax -5.04874 4.8495 -2.59941
lowerneck -22.4814 -3.5782 -3.59894
upperneck 31.2904 -7.43616 5.69158
head 15.0489 -3.25953 1.40231
rclavicle 5.09883e-014 -4.67144e-014
rhumerus -35.4165 16.9619 -86.2605
rradius 68.1868
rwrist -55.97
rhand 36.6321 -5.08531
rfingers 7.12502
rthumb 59.5496 -19.3299
lclavicle 5.09883e-014 -4.67144e-014
lhumerus -77.1168 16.5131 59.5566
lradius 81.3511
lwrist 68.9173
lhand 31.5436 17.2987
lfingers 7.12502
lthumb 55.0891 35.3727
rfemur -27.8431 7.07394 27.0187
rtibia 62.0176
rfoot -6.8211 -15.5789
rtoes -7.52715
lfemur -72.2515 -5.74467 -14.7117
ltibia 65.675
lfoot 1.18363 8.30533
ltoes -20.9956
430
root 1.81241 16.3804 23.3465 -157.461 4.50749 -175.893
lowerback -1.1772 6.58764 -0.461388
upperback -5.79721 9.05048 -2.37773
thorax -5.03513 4.61408 -2.4872
lowerneck -23.5451 -3.49248 -3.25743
upperneck 31.6524 -7.50454 5.82902
head 15.4557 -3.19118 1.3731
rclavicle -1.15593e-013 1.47101e-014
rhumerus -34.4187 17.38 -84.6133
rradius 69.0084
rwrist -54.7227
rhand 37.0503 -4.1048
rfingers 7.12502
rthumb 59.9083 -17.981
lclavicle -1.15593e-013 1.47101e-014
lhumerus -74.5156 17.847 61.3194
lradius 84.269
lwrist 72.7663
lhand 28.9595 19.0495
lfingers 7.12502
lthumb 52.7691 38.687
rfemur -28.9586 5.79834 27.4653
rtibia 67.7757
rfoot -5.12713 -15.6976
rtoes -8.28164
lfemur -70.5352 -5.55761 -15.0773
ltibia 65.7988
lfoot 2.13308 7.99034
ltoes -22.2193
